<svg xmlns="http://www.w3.org/2000/svg" viewBox="0 0 240 180">
  <defs>
    <linearGradient id="bg15" x1="0" y1="0" x2="0" y2="1">
      <stop offset="0%" stop-color="#e0f2fe"/>
      <stop offset="100%" stop-color="#bae6fd"/>
    </linearGradient>
  </defs>
  <rect width="240" height="180" fill="url(#bg15)"/>
  <!-- Brush -->
  <rect x="60" y="85" width="90" height="10" rx="3" fill="#1e293b"/>
  <rect x="150" y="83" width="40" height="14" rx="4" fill="#64748b"/>
  <!-- Bristles -->
  <line x1="65" y1="95" x2="62" y2="110" stroke="#cbd5e1" stroke-width="1"/>
  <line x1="70" y1="95" x2="68" y2="110" stroke="#cbd5e1" stroke-width="1"/>
  <line x1="75" y1="95" x2="74" y2="110" stroke="#cbd5e1" stroke-width="1"/>
  <line x1="80" y1="95" x2="79" y2="110" stroke="#cbd5e1" stroke-width="1"/>
  <line x1="85" y1="95" x2="85" y2="110" stroke="#cbd5e1" stroke-width="1"/>
  <line x1="90" y1="95" x2="91" y2="110" stroke="#cbd5e1" stroke-width="1"/>
  <line x1="95" y1="95" x2="96" y2="110" stroke="#cbd5e1" stroke-width="1"/>
  <line x1="100" y1="95" x2="101" y2="110" stroke="#cbd5e1" stroke-width="1"/>
  <line x1="105" y1="95" x2="107" y2="110" stroke="#cbd5e1" stroke-width="1"/>
  <line x1="110" y1="95" x2="113" y2="110" stroke="#cbd5e1" stroke-width="1"/>
  <line x1="115" y1="95" x2="118" y2="110" stroke="#cbd5e1" stroke-width="1"/>
  <line x1="120" y1="95" x2="123" y2="110" stroke="#cbd5e1" stroke-width="1"/>
  <line x1="125" y1="95" x2="128" y2="110" stroke="#cbd5e1" stroke-width="1"/>
  <line x1="130" y1="95" x2="133" y2="110" stroke="#cbd5e1" stroke-width="1"/>
  <line x1="135" y1="95" x2="138" y2="110" stroke="#cbd5e1" stroke-width="1"/>
  <line x1="140" y1="95" x2="143" y2="110" stroke="#cbd5e1" stroke-width="1"/>
  <!-- Handle grip rings -->
  <line x1="155" y1="85" x2="155" y2="97" stroke="#1a202c" stroke-width="0.8"/>
  <line x1="162" y1="85" x2="162" y2="97" stroke="#1a202c" stroke-width="0.8"/>
  <line x1="169" y1="85" x2="169" y2="97" stroke="#1a202c" stroke-width="0.8"/>
  <line x1="176" y1="85" x2="176" y2="97" stroke="#1a202c" stroke-width="0.8"/>
  <line x1="183" y1="85" x2="183" y2="97" stroke="#1a202c" stroke-width="0.8"/>
  <!-- Small accessory (U clip) above -->
  <path d="M70,40 Q70,25 85,25 Q100,25 100,40 L100,65" stroke="#64748b" stroke-width="3" fill="none"/>
  <path d="M85,25 L85,65" stroke="#64748b" stroke-width="3" fill="none"/>
  <!-- Labels -->
  <text x="120" y="150" font-family="Arial" font-size="10" fill="#2d3748" text-anchor="middle" font-weight="bold">ACCESSORY</text>
</svg>
