<svg xmlns="http://www.w3.org/2000/svg" viewBox="0 0 240 180">
  <defs>
    <linearGradient id="bg7" x1="0" y1="0" x2="0" y2="1">
      <stop offset="0%" stop-color="#e0f2fe"/>
      <stop offset="100%" stop-color="#bae6fd"/>
    </linearGradient>
  </defs>
  <rect width="240" height="180" fill="url(#bg7)"/>
  <!-- Dosing pump base -->
  <rect x="40" y="70" width="160" height="60" rx="8" fill="#f1f5f9"/>
  <rect x="40" y="70" width="160" height="14" rx="8" fill="#cbd5e1"/>
  <!-- 4 pump heads -->
  <circle cx="70" cy="105" r="14" fill="#1a202c"/>
  <circle cx="70" cy="105" r="10" fill="#4a5568"/>
  <circle cx="70" cy="105" r="5" fill="#1a202c"/>
  <circle cx="108" cy="105" r="14" fill="#1a202c"/>
  <circle cx="108" cy="105" r="10" fill="#4a5568"/>
  <circle cx="108" cy="105" r="5" fill="#1a202c"/>
  <circle cx="146" cy="105" r="14" fill="#1a202c"/>
  <circle cx="146" cy="105" r="10" fill="#4a5568"/>
  <circle cx="146" cy="105" r="5" fill="#1a202c"/>
  <circle cx="184" cy="105" r="14" fill="#1a202c"/>
  <circle cx="184" cy="105" r="10" fill="#4a5568"/>
  <circle cx="184" cy="105" r="5" fill="#1a202c"/>
  <!-- Tubes at bottom -->
  <path d="M70,125 Q70,140 80,155" stroke="#ef4444" stroke-width="2.5" fill="none"/>
  <path d="M108,125 Q108,140 118,155" stroke="#10b981" stroke-width="2.5" fill="none"/>
  <path d="M146,125 Q146,140 156,155" stroke="#3b82f6" stroke-width="2.5" fill="none"/>
  <path d="M184,125 Q184,140 194,155" stroke="#f59e0b" stroke-width="2.5" fill="none"/>
  <!-- Dosing bottles (simplified) -->
  <rect x="75" y="25" width="20" height="45" rx="2" fill="#ef4444" opacity="0.85"/>
  <rect x="113" y="25" width="20" height="45" rx="2" fill="#10b981" opacity="0.85"/>
  <rect x="151" y="25" width="20" height="45" rx="2" fill="#3b82f6" opacity="0.85"/>
  <rect x="189" y="25" width="20" height="45" rx="2" fill="#f59e0b" opacity="0.85"/>
  <!-- Bottle caps -->
  <rect x="77" y="21" width="16" height="6" rx="1" fill="#2d3748"/>
  <rect x="115" y="21" width="16" height="6" rx="1" fill="#2d3748"/>
  <rect x="153" y="21" width="16" height="6" rx="1" fill="#2d3748"/>
  <rect x="191" y="21" width="16" height="6" rx="1" fill="#2d3748"/>
  <!-- Display -->
  <rect x="46" y="76" width="18" height="6" rx="1" fill="#10b981"/>
</svg>
